<svg width="25" height="25" viewBox="0 0 25 25" fill="none" xmlns="http://www.w3.org/2000/svg">
<path d="M8.47363 22.2905C9.02592 22.2905 9.47363 21.8428 9.47363 21.2905C9.47363 20.7382 9.02592 20.2905 8.47363 20.2905C7.92135 20.2905 7.47363 20.7382 7.47363 21.2905C7.47363 21.8428 7.92135 22.2905 8.47363 22.2905Z" stroke="white" stroke-width="2" stroke-linecap="round" stroke-linejoin="round"/>
<path d="M19.4736 22.2905C20.0259 22.2905 20.4736 21.8428 20.4736 21.2905C20.4736 20.7382 20.0259 20.2905 19.4736 20.2905C18.9213 20.2905 18.4736 20.7382 18.4736 21.2905C18.4736 21.8428 18.9213 22.2905 19.4736 22.2905Z" stroke="white" stroke-width="2" stroke-linecap="round" stroke-linejoin="round"/>
<path d="M2.52368 2.34058H4.52368L7.18368 14.7606C7.28126 15.2154 7.53435 15.6221 7.89939 15.9104C8.26443 16.1988 8.71859 16.3509 9.18368 16.3406H18.9637C19.4189 16.3398 19.8602 16.1839 20.2147 15.8984C20.5693 15.613 20.8158 15.2151 20.9137 14.7706L22.5637 7.34058H5.59368" stroke="white" stroke-width="2" stroke-linecap="round" stroke-linejoin="round"/>
</svg>
