<svg width="17" height="17" viewBox="0 0 17 17" fill="none" xmlns="http://www.w3.org/2000/svg">
<g opacity="0.8" clip-path="url(#clip0_2_436)">
<g clip-path="url(#clip1_2_436)">
<g clip-path="url(#clip2_2_436)">
<mask id="mask0_2_436" style="mask-type:luminance" maskUnits="userSpaceOnUse" x="0" y="0" width="17" height="17">
<path d="M0.473633 0.290527H16.4736V16.2905H0.473633V0.290527Z" fill="white"/>
</mask>
<g mask="url(#mask0_2_436)">
<path fill-rule="evenodd" clip-rule="evenodd" d="M10.7436 14.3905C11.5541 14.0886 12.2962 13.6279 12.9264 13.0355C13.5566 12.4431 14.0622 11.7308 14.4136 10.9405C13.587 11.0805 12.687 11.1939 11.7136 11.2805C11.507 12.5005 11.1836 13.5339 10.7436 14.3805M8.47363 16.2905C10.5954 16.2905 12.6302 15.4477 14.1305 13.9474C15.6308 12.4471 16.4736 10.4123 16.4736 8.29053C16.4736 6.1688 15.6308 4.13396 14.1305 2.63367C12.6302 1.13338 10.5954 0.290527 8.47363 0.290527C6.3519 0.290527 4.31707 1.13338 2.81678 2.63367C1.31649 4.13396 0.473633 6.1688 0.473633 8.29053C0.473633 10.4123 1.31649 12.4471 2.81678 13.9474C4.31707 15.4477 6.3519 16.2905 8.47363 16.2905ZM8.95363 14.7705C8.63401 14.7925 8.31326 14.7925 7.99363 14.7705H7.97363C7.60947 14.3901 7.32401 13.9415 7.13363 13.4505C6.8803 12.8572 6.6703 12.1639 6.50363 11.3705C7.80951 11.4346 9.11775 11.4346 10.4236 11.3705C10.257 12.1705 10.047 12.8639 9.79363 13.4505C9.60209 13.938 9.31669 14.3831 8.95363 14.7605V14.7705ZM11.8936 10.0105C13.0003 9.91053 13.9836 9.76719 14.8436 9.58053C15.0035 8.72796 15.0035 7.8531 14.8436 7.00053C13.977 6.82053 12.9936 6.67719 11.8936 6.57053C12.0035 7.71456 12.0035 8.86649 11.8936 10.0105ZM10.6236 6.47053C10.7539 7.68036 10.7539 8.90069 10.6236 10.1105C9.19139 10.1896 7.75588 10.1896 6.32363 10.1105C6.19336 8.90069 6.19336 7.68036 6.32363 6.47053C7.75588 6.39145 9.19139 6.39145 10.6236 6.47053ZM11.7236 5.30053C12.6903 5.38719 13.587 5.50053 14.4136 5.64053C14.0611 4.85207 13.555 4.14177 12.9249 3.55113C12.2947 2.96048 11.5532 2.50134 10.7436 2.20053C11.177 3.04053 11.5036 4.07386 11.7236 5.30053ZM8.95363 1.79053L8.96363 1.81053C9.23697 2.05719 9.51697 2.49386 9.80363 3.12053C10.057 3.71386 10.267 4.40719 10.4336 5.20053C9.12775 5.13646 7.81951 5.13646 6.51363 5.20053C6.6803 4.40053 6.8903 3.70719 7.14363 3.12053C7.33699 2.6287 7.62588 2.18006 7.99363 1.80053C8.31326 1.77856 8.63401 1.77856 8.95363 1.80053M6.20363 2.20053C5.39404 2.50134 4.65252 2.96048 4.02238 3.55113C3.39225 4.14177 2.88614 4.85207 2.53363 5.64053C3.42782 5.48501 4.32881 5.37155 5.23363 5.30053C5.4403 4.08053 5.76363 3.04719 6.20363 2.20053ZM5.05363 6.57053C3.94697 6.67719 2.96363 6.82053 2.10363 7.00053C1.94378 7.8531 1.94378 8.72796 2.10363 9.58053C2.9703 9.76053 3.95363 9.90386 5.05363 10.0105C4.94381 8.86649 4.94381 7.71456 5.05363 6.57053ZM5.22363 11.2805C4.25697 11.2005 3.3603 11.0872 2.53363 10.9405C2.88614 11.729 3.39225 12.4393 4.02238 13.0299C4.65252 13.6206 5.39404 14.0797 6.20363 14.3805C5.7703 13.5339 5.44363 12.5005 5.22363 11.2805Z" fill="#999999"/>
</g>
</g>
</g>
</g>
<defs>
<clipPath id="clip0_2_436">
<rect width="16" height="16" fill="white" transform="translate(0.473633 0.290527)"/>
</clipPath>
<clipPath id="clip1_2_436">
<rect width="16" height="16" fill="white" transform="translate(0.473633 0.290527)"/>
</clipPath>
<clipPath id="clip2_2_436">
<rect width="16" height="16" fill="white" transform="translate(0.473633 0.290527)"/>
</clipPath>
</defs>
</svg>
